<mxfile host="65bd71144e">
    <diagram id="n4mrQ8y3M_gc2BHr-9Hr" name="Page-1">
        <mxGraphModel dx="1232" dy="598" grid="1" gridSize="10" guides="1" tooltips="1" connect="1" arrows="1" fold="1" page="1" pageScale="1" pageWidth="827" pageHeight="1169" math="0" shadow="0">
            <root>
                <mxCell id="0"/>
                <mxCell id="1" parent="0"/>
                <mxCell id="168" value="" style="endArrow=classic;html=1;" parent="1" edge="1">
                    <mxGeometry width="50" height="50" relative="1" as="geometry">
                        <mxPoint x="80" y="760" as="sourcePoint"/>
                        <mxPoint x="80" y="560" as="targetPoint"/>
                    </mxGeometry>
                </mxCell>
                <mxCell id="169" value="" style="endArrow=classic;html=1;" parent="1" edge="1">
                    <mxGeometry width="50" height="50" relative="1" as="geometry">
                        <mxPoint x="80" y="760" as="sourcePoint"/>
                        <mxPoint x="900" y="760" as="targetPoint"/>
                    </mxGeometry>
                </mxCell>
                <mxCell id="170" value="Voltage V" style="text;html=1;align=center;verticalAlign=middle;resizable=0;points=[];autosize=1;strokeColor=none;fillColor=none;" parent="1" vertex="1">
                    <mxGeometry x="40" y="530" width="70" height="20" as="geometry"/>
                </mxCell>
                <mxCell id="171" value="time t" style="text;html=1;align=center;verticalAlign=middle;resizable=0;points=[];autosize=1;strokeColor=none;fillColor=none;" parent="1" vertex="1">
                    <mxGeometry x="900" y="750" width="40" height="20" as="geometry"/>
                </mxCell>
                <mxCell id="173" value="&lt;font style=&quot;font-size: 36px&quot;&gt;1&lt;/font&gt;" style="rounded=0;whiteSpace=wrap;html=1;fillColor=#f9f7ed;strokeColor=#36393d;" parent="1" vertex="1">
                    <mxGeometry x="90" y="489" width="50" height="30" as="geometry"/>
                </mxCell>
                <mxCell id="174" value="&lt;font style=&quot;font-size: 36px&quot;&gt;0&lt;/font&gt;" style="rounded=0;whiteSpace=wrap;html=1;fillColor=#f9f7ed;strokeColor=#36393d;" parent="1" vertex="1">
                    <mxGeometry x="140" y="489" width="50" height="30" as="geometry"/>
                </mxCell>
                <mxCell id="175" value="&lt;font style=&quot;font-size: 36px&quot;&gt;1&lt;/font&gt;" style="rounded=0;whiteSpace=wrap;html=1;fillColor=#f9f7ed;strokeColor=#36393d;" parent="1" vertex="1">
                    <mxGeometry x="190" y="489" width="50" height="30" as="geometry"/>
                </mxCell>
                <mxCell id="176" value="&lt;font style=&quot;font-size: 36px&quot;&gt;0&lt;/font&gt;" style="rounded=0;whiteSpace=wrap;html=1;fillColor=#f9f7ed;strokeColor=#36393d;" parent="1" vertex="1">
                    <mxGeometry x="240" y="489" width="50" height="30" as="geometry"/>
                </mxCell>
                <mxCell id="177" value="&lt;font style=&quot;font-size: 36px&quot;&gt;0&lt;/font&gt;" style="rounded=0;whiteSpace=wrap;html=1;fillColor=#f9f7ed;strokeColor=#36393d;" parent="1" vertex="1">
                    <mxGeometry x="290" y="489" width="50" height="30" as="geometry"/>
                </mxCell>
                <mxCell id="178" value="&lt;font style=&quot;font-size: 36px&quot;&gt;0&lt;/font&gt;" style="rounded=0;whiteSpace=wrap;html=1;fillColor=#f9f7ed;strokeColor=#36393d;" parent="1" vertex="1">
                    <mxGeometry x="340" y="489" width="50" height="30" as="geometry"/>
                </mxCell>
                <mxCell id="179" value="&lt;font style=&quot;font-size: 36px&quot;&gt;0&lt;/font&gt;" style="rounded=0;whiteSpace=wrap;html=1;fillColor=#f9f7ed;strokeColor=#36393d;" parent="1" vertex="1">
                    <mxGeometry x="390" y="489" width="50" height="30" as="geometry"/>
                </mxCell>
                <mxCell id="180" value="&lt;font style=&quot;font-size: 36px&quot;&gt;0&lt;/font&gt;" style="rounded=0;whiteSpace=wrap;html=1;fillColor=#f9f7ed;strokeColor=#36393d;" parent="1" vertex="1">
                    <mxGeometry x="440" y="489" width="50" height="30" as="geometry"/>
                </mxCell>
                <mxCell id="181" value="&lt;font style=&quot;font-size: 36px&quot;&gt;1&lt;/font&gt;" style="rounded=0;whiteSpace=wrap;html=1;fillColor=#f9f7ed;strokeColor=#36393d;gradientColor=#B3B3B3;" parent="1" vertex="1">
                    <mxGeometry x="490" y="489" width="50" height="30" as="geometry"/>
                </mxCell>
                <mxCell id="182" value="&lt;font style=&quot;font-size: 36px&quot;&gt;0&lt;/font&gt;" style="rounded=0;whiteSpace=wrap;html=1;fillColor=#f9f7ed;strokeColor=#36393d;gradientColor=#B3B3B3;" parent="1" vertex="1">
                    <mxGeometry x="540" y="489" width="50" height="30" as="geometry"/>
                </mxCell>
                <mxCell id="183" value="&lt;font style=&quot;font-size: 36px&quot;&gt;0&lt;/font&gt;" style="rounded=0;whiteSpace=wrap;html=1;fillColor=#f9f7ed;strokeColor=#36393d;gradientColor=#B3B3B3;" parent="1" vertex="1">
                    <mxGeometry x="590" y="489" width="50" height="30" as="geometry"/>
                </mxCell>
                <mxCell id="184" value="&lt;font style=&quot;font-size: 36px&quot;&gt;0&lt;/font&gt;" style="rounded=0;whiteSpace=wrap;html=1;fillColor=#f9f7ed;strokeColor=#36393d;gradientColor=#B3B3B3;" parent="1" vertex="1">
                    <mxGeometry x="640" y="489" width="50" height="30" as="geometry"/>
                </mxCell>
                <mxCell id="185" value="&lt;font style=&quot;font-size: 36px&quot;&gt;0&lt;/font&gt;" style="rounded=0;whiteSpace=wrap;html=1;fillColor=#f9f7ed;strokeColor=#36393d;gradientColor=#B3B3B3;" parent="1" vertex="1">
                    <mxGeometry x="690" y="489" width="50" height="30" as="geometry"/>
                </mxCell>
                <mxCell id="186" value="&lt;font style=&quot;font-size: 36px&quot;&gt;0&lt;/font&gt;" style="rounded=0;whiteSpace=wrap;html=1;fillColor=#f9f7ed;strokeColor=#36393d;gradientColor=#B3B3B3;" parent="1" vertex="1">
                    <mxGeometry x="740" y="489" width="50" height="30" as="geometry"/>
                </mxCell>
                <mxCell id="187" value="&lt;font style=&quot;font-size: 36px&quot;&gt;0&lt;/font&gt;" style="rounded=0;whiteSpace=wrap;html=1;fillColor=#f9f7ed;strokeColor=#36393d;gradientColor=#B3B3B3;" parent="1" vertex="1">
                    <mxGeometry x="790" y="489" width="50" height="30" as="geometry"/>
                </mxCell>
                <mxCell id="188" value="&lt;font style=&quot;font-size: 36px&quot;&gt;0&lt;/font&gt;" style="rounded=0;whiteSpace=wrap;html=1;fillColor=#f9f7ed;strokeColor=#36393d;gradientColor=#B3B3B3;" parent="1" vertex="1">
                    <mxGeometry x="840" y="489" width="50" height="30" as="geometry"/>
                </mxCell>
                <mxCell id="197" value="" style="endArrow=none;dashed=1;html=1;dashPattern=1 3;strokeWidth=2;fontSize=36;" parent="1" edge="1">
                    <mxGeometry width="50" height="50" relative="1" as="geometry">
                        <mxPoint x="89.76999999999998" y="519" as="sourcePoint"/>
                        <mxPoint x="89.76999999999998" y="469" as="targetPoint"/>
                        <Array as="points">
                            <mxPoint x="89.76999999999998" y="499"/>
                        </Array>
                    </mxGeometry>
                </mxCell>
                <mxCell id="200" value="" style="endArrow=none;dashed=1;html=1;dashPattern=1 3;strokeWidth=2;fontSize=36;" parent="1" edge="1">
                    <mxGeometry width="50" height="50" relative="1" as="geometry">
                        <mxPoint x="490" y="519" as="sourcePoint"/>
                        <mxPoint x="490" y="469" as="targetPoint"/>
                        <Array as="points">
                            <mxPoint x="490" y="499"/>
                        </Array>
                    </mxGeometry>
                </mxCell>
                <mxCell id="202" value="" style="endArrow=none;dashed=1;html=1;dashPattern=1 3;strokeWidth=2;fontSize=36;" parent="1" edge="1">
                    <mxGeometry width="50" height="50" relative="1" as="geometry">
                        <mxPoint x="489.77" y="519" as="sourcePoint"/>
                        <mxPoint x="489.77" y="469" as="targetPoint"/>
                        <Array as="points">
                            <mxPoint x="489.77" y="499"/>
                        </Array>
                    </mxGeometry>
                </mxCell>
                <mxCell id="204" value="" style="endArrow=none;dashed=1;html=1;dashPattern=1 3;strokeWidth=2;fontSize=36;" parent="1" edge="1">
                    <mxGeometry width="50" height="50" relative="1" as="geometry">
                        <mxPoint x="890" y="519" as="sourcePoint"/>
                        <mxPoint x="890" y="469" as="targetPoint"/>
                        <Array as="points">
                            <mxPoint x="890" y="499"/>
                        </Array>
                    </mxGeometry>
                </mxCell>
                <mxCell id="206" value="&lt;font style=&quot;font-size: 15px&quot;&gt;CPI ECP Header&lt;/font&gt;" style="text;html=1;align=center;verticalAlign=middle;resizable=0;points=[];autosize=1;strokeColor=none;fillColor=none;fontSize=30;" parent="1" vertex="1">
                    <mxGeometry x="215" y="439" width="130" height="50" as="geometry"/>
                </mxCell>
                <mxCell id="207" value="&lt;font style=&quot;font-size: 15px&quot;&gt;CPI ECP Payload&lt;/font&gt;" style="text;html=1;align=center;verticalAlign=middle;resizable=0;points=[];autosize=1;strokeColor=none;fillColor=none;fontSize=30;" parent="1" vertex="1">
                    <mxGeometry x="635" y="439" width="130" height="50" as="geometry"/>
                </mxCell>
                <mxCell id="208" value="" style="endArrow=none;html=1;edgeStyle=orthogonalEdgeStyle;rounded=0;" parent="1" edge="1">
                    <mxGeometry width="50" height="50" relative="1" as="geometry">
                        <mxPoint x="90" y="720" as="sourcePoint"/>
                        <mxPoint x="140" y="720" as="targetPoint"/>
                        <Array as="points">
                            <mxPoint x="90" y="600"/>
                        </Array>
                    </mxGeometry>
                </mxCell>
                <mxCell id="211" value="" style="endArrow=none;html=1;edgeStyle=orthogonalEdgeStyle;rounded=0;" parent="1" edge="1">
                    <mxGeometry width="50" height="50" relative="1" as="geometry">
                        <mxPoint x="140" y="600" as="sourcePoint"/>
                        <mxPoint x="190" y="600" as="targetPoint"/>
                        <Array as="points">
                            <mxPoint x="160" y="720"/>
                            <mxPoint x="160" y="720"/>
                        </Array>
                    </mxGeometry>
                </mxCell>
                <mxCell id="212" value="" style="endArrow=none;html=1;edgeStyle=orthogonalEdgeStyle;rounded=0;" parent="1" edge="1">
                    <mxGeometry width="50" height="50" relative="1" as="geometry">
                        <mxPoint x="190" y="720.0000000000002" as="sourcePoint"/>
                        <mxPoint x="240" y="720.0000000000002" as="targetPoint"/>
                        <Array as="points">
                            <mxPoint x="190" y="600"/>
                        </Array>
                    </mxGeometry>
                </mxCell>
                <mxCell id="214" value="" style="endArrow=none;html=1;rounded=0;" parent="1" edge="1">
                    <mxGeometry width="50" height="50" relative="1" as="geometry">
                        <mxPoint x="240" y="720" as="sourcePoint"/>
                        <mxPoint x="290" y="720" as="targetPoint"/>
                    </mxGeometry>
                </mxCell>
                <mxCell id="215" value="" style="endArrow=none;html=1;rounded=0;" parent="1" edge="1">
                    <mxGeometry width="50" height="50" relative="1" as="geometry">
                        <mxPoint x="290" y="720" as="sourcePoint"/>
                        <mxPoint x="340" y="720" as="targetPoint"/>
                    </mxGeometry>
                </mxCell>
                <mxCell id="216" value="" style="endArrow=none;html=1;rounded=0;" parent="1" edge="1">
                    <mxGeometry width="50" height="50" relative="1" as="geometry">
                        <mxPoint x="340" y="720" as="sourcePoint"/>
                        <mxPoint x="390" y="720" as="targetPoint"/>
                    </mxGeometry>
                </mxCell>
                <mxCell id="217" value="" style="endArrow=none;html=1;rounded=0;" parent="1" edge="1">
                    <mxGeometry width="50" height="50" relative="1" as="geometry">
                        <mxPoint x="390" y="720" as="sourcePoint"/>
                        <mxPoint x="440" y="720" as="targetPoint"/>
                    </mxGeometry>
                </mxCell>
                <mxCell id="218" value="" style="endArrow=none;html=1;rounded=0;" parent="1" edge="1">
                    <mxGeometry width="50" height="50" relative="1" as="geometry">
                        <mxPoint x="440" y="720" as="sourcePoint"/>
                        <mxPoint x="490" y="720" as="targetPoint"/>
                    </mxGeometry>
                </mxCell>
                <mxCell id="219" value="" style="endArrow=none;html=1;edgeStyle=orthogonalEdgeStyle;rounded=0;" parent="1" edge="1">
                    <mxGeometry width="50" height="50" relative="1" as="geometry">
                        <mxPoint x="490" y="720.0100000000002" as="sourcePoint"/>
                        <mxPoint x="540" y="720.0100000000002" as="targetPoint"/>
                        <Array as="points">
                            <mxPoint x="490" y="600.01"/>
                        </Array>
                    </mxGeometry>
                </mxCell>
                <mxCell id="220" value="" style="endArrow=none;html=1;rounded=0;" parent="1" edge="1">
                    <mxGeometry width="50" height="50" relative="1" as="geometry">
                        <mxPoint x="540" y="720" as="sourcePoint"/>
                        <mxPoint x="590" y="720" as="targetPoint"/>
                    </mxGeometry>
                </mxCell>
                <mxCell id="221" value="" style="endArrow=none;html=1;rounded=0;" parent="1" edge="1">
                    <mxGeometry width="50" height="50" relative="1" as="geometry">
                        <mxPoint x="590" y="720" as="sourcePoint"/>
                        <mxPoint x="640" y="720" as="targetPoint"/>
                    </mxGeometry>
                </mxCell>
                <mxCell id="222" value="" style="endArrow=none;html=1;rounded=0;" parent="1" edge="1">
                    <mxGeometry width="50" height="50" relative="1" as="geometry">
                        <mxPoint x="640" y="720" as="sourcePoint"/>
                        <mxPoint x="690" y="720" as="targetPoint"/>
                    </mxGeometry>
                </mxCell>
                <mxCell id="223" value="" style="endArrow=none;html=1;rounded=0;" parent="1" edge="1">
                    <mxGeometry width="50" height="50" relative="1" as="geometry">
                        <mxPoint x="690" y="720" as="sourcePoint"/>
                        <mxPoint x="740" y="720" as="targetPoint"/>
                    </mxGeometry>
                </mxCell>
                <mxCell id="224" value="" style="endArrow=none;html=1;rounded=0;" parent="1" edge="1">
                    <mxGeometry width="50" height="50" relative="1" as="geometry">
                        <mxPoint x="740" y="720" as="sourcePoint"/>
                        <mxPoint x="790" y="720" as="targetPoint"/>
                    </mxGeometry>
                </mxCell>
                <mxCell id="225" value="" style="endArrow=none;html=1;rounded=0;" parent="1" edge="1">
                    <mxGeometry width="50" height="50" relative="1" as="geometry">
                        <mxPoint x="790" y="720" as="sourcePoint"/>
                        <mxPoint x="840" y="720" as="targetPoint"/>
                    </mxGeometry>
                </mxCell>
                <mxCell id="226" value="" style="endArrow=none;html=1;rounded=0;" parent="1" edge="1">
                    <mxGeometry width="50" height="50" relative="1" as="geometry">
                        <mxPoint x="840" y="720" as="sourcePoint"/>
                        <mxPoint x="890" y="720" as="targetPoint"/>
                    </mxGeometry>
                </mxCell>
                <mxCell id="227" value="&lt;font style=&quot;font-size: 17px&quot;&gt;+1&lt;/font&gt;" style="text;html=1;align=center;verticalAlign=middle;resizable=0;points=[];autosize=1;strokeColor=#b85450;fillColor=#f8cecc;" parent="1" vertex="1">
                    <mxGeometry x="85" y="650" width="30" height="20" as="geometry"/>
                </mxCell>
                <mxCell id="228" value="&lt;font style=&quot;font-size: 17px&quot;&gt;+1&lt;/font&gt;" style="text;html=1;align=center;verticalAlign=middle;resizable=0;points=[];autosize=1;strokeColor=#b85450;fillColor=#f8cecc;" parent="1" vertex="1">
                    <mxGeometry x="180" y="650" width="30" height="20" as="geometry"/>
                </mxCell>
                <mxCell id="229" value="&lt;font style=&quot;font-size: 17px&quot;&gt;+1&lt;/font&gt;" style="text;html=1;align=center;verticalAlign=middle;resizable=0;points=[];autosize=1;strokeColor=#b85450;fillColor=#f8cecc;" parent="1" vertex="1">
                    <mxGeometry x="480" y="650" width="30" height="20" as="geometry"/>
                </mxCell>
                <mxCell id="230" value="&lt;font style=&quot;font-size: 17px&quot;&gt;Timer Counter: 3&lt;/font&gt;" style="text;html=1;align=center;verticalAlign=middle;resizable=0;points=[];autosize=1;strokeColor=#b85450;fillColor=#f8cecc;" parent="1" vertex="1">
                    <mxGeometry x="890" y="650" width="140" height="20" as="geometry"/>
                </mxCell>
                <mxCell id="231" value="" style="endArrow=none;dashed=1;html=1;dashPattern=1 3;strokeWidth=2;rounded=0;fontSize=17;" parent="1" target="230" edge="1">
                    <mxGeometry width="50" height="50" relative="1" as="geometry">
                        <mxPoint x="80" y="660" as="sourcePoint"/>
                        <mxPoint x="520" y="660" as="targetPoint"/>
                    </mxGeometry>
                </mxCell>
            </root>
        </mxGraphModel>
    </diagram>
</mxfile>